<svg width="12" height="12" viewBox="0 0 12 12" fill="none" xmlns="http://www.w3.org/2000/svg">
<g clip-path="url(#clip0_2979_1127)">
<path d="M6.76284 0.899913C6.69091 0.759512 6.58163 0.641685 6.44703 0.559407C6.31244 0.47713 6.15774 0.433594 5.99999 0.433594C5.84223 0.433594 5.68754 0.47713 5.55294 0.559407C5.41834 0.641685 5.30906 0.759512 5.23713 0.899913L0.522844 10.3285C0.457093 10.459 0.425788 10.6041 0.431903 10.7501C0.438019 10.8961 0.481351 11.0381 0.557784 11.1626C0.634218 11.2871 0.741215 11.39 0.868615 11.4616C0.996016 11.5331 1.13959 11.5709 1.2857 11.5713H10.7143C10.8604 11.5709 11.004 11.5331 11.1314 11.4616C11.2588 11.39 11.3658 11.2871 11.4422 11.1626C11.5186 11.0381 11.562 10.8961 11.5681 10.7501C11.5742 10.6041 11.5429 10.459 11.4771 10.3285L6.76284 0.899913Z" fill="#D82C0D"/>
<path d="M5.99986 9.10714C6.23655 9.10714 6.42843 8.91526 6.42843 8.67857C6.42843 8.44188 6.23655 8.25 5.99986 8.25C5.76317 8.25 5.57129 8.44188 5.57129 8.67857C5.57129 8.91526 5.76317 9.10714 5.99986 9.10714Z" fill="white" stroke="white" stroke-width="0.6" stroke-linecap="round" stroke-linejoin="round"/>
<path d="M6 4.28516V6.85658" stroke="white" stroke-linecap="round" stroke-linejoin="round"/>
</g>
<defs>
<clipPath id="clip0_2979_1127">
<rect width="12" height="12" fill="white"/>
</clipPath>
</defs>
</svg>
