<svg width="16" height="16" viewBox="0 0 16 16" fill="none" xmlns="http://www.w3.org/2000/svg">
<g clip-path="url(#clip0_2624_4267)">
<path d="M8.27153 15.9713C12.5241 15.9713 15.9715 12.5239 15.9715 8.27129C15.9715 4.0187 12.5241 0.571289 8.27153 0.571289C4.01894 0.571289 0.571533 4.0187 0.571533 8.27129C0.571533 12.5239 4.01894 15.9713 8.27153 15.9713Z" fill="#3BB75E"/>
<path d="M6.00024 9.6L7.84524 11.076C7.89479 11.1168 7.95282 11.1461 8.01509 11.1616C8.07736 11.1772 8.14232 11.1787 8.20524 11.166C8.26877 11.1541 8.32898 11.1286 8.38179 11.0914C8.43459 11.0541 8.47874 11.0059 8.51124 10.95L11.4002 6" stroke="white" stroke-width="1.5" stroke-linecap="round" stroke-linejoin="round"/>
</g>
<defs>
<clipPath id="clip0_2624_4267">
<rect width="16" height="16" fill="white"/>
</clipPath>
</defs>
</svg>
