<svg width="60" height="20" viewBox="0 0 60 20" fill="none" xmlns="http://www.w3.org/2000/svg">
<g id="Union">
<path fill-rule="evenodd" clip-rule="evenodd" d="M29.7287 2.18623C26.5968 0.40471 22.2089 -0.275002 18.4698 0.0995254C14.668 0.480326 11.8085 1.92838 11.8085 4.09933C11.8085 7.44272 16.2903 9.75204 21.5578 11.4238C19.0106 12.4529 17.0762 13.6506 15.9217 14.8128C15.7999 14.9355 15.6861 15.0585 15.5807 15.1815H1.2766C0.571551 15.1815 0 15.4359 0 15.7498C0 16.0636 0.571551 16.3181 1.2766 16.3181H14.8598C14.6832 16.7604 14.6412 17.1913 14.7577 17.597C15.0107 18.4786 16.0232 19.2413 17.9397 19.6679C19.9811 20.1223 21.9458 20.0815 23.6912 19.7205C25.3734 19.3725 26.7927 18.7414 27.9503 18.0527C28.8579 17.5128 29.6507 16.9095 30.319 16.3181H58.7234C59.4284 16.3181 60 16.0636 60 15.7498C60 15.4359 59.4284 15.1815 58.7234 15.1815H31.4791C31.9249 14.6968 32.2664 14.2611 32.4967 13.9278C33.0724 13.0949 33.743 11.5014 33.887 9.68608C34.163 9.64744 34.4303 9.61242 34.6889 9.58093C36.438 9.36794 37.7026 9.32708 38.5315 9.38614C39.3292 9.44299 39.5556 9.57327 39.6402 9.66562C39.7609 9.79741 39.8002 10.0759 39.3519 10.5604C38.776 11.1829 38.4841 11.7533 38.7615 12.2087C38.9163 12.4628 39.2535 12.6857 39.7867 12.8278C40.2909 12.9622 40.8463 12.9913 41.3301 12.9778C42.2695 12.9516 43.297 12.7558 44.2428 12.5022C45.2197 12.2402 46.2379 11.8819 47.1797 11.4626C48.0267 11.0855 48.8961 10.7416 49.7142 10.472C50.5492 10.1969 51.257 10.0241 51.7865 9.95403C52.0444 9.9199 52.2017 9.91813 52.2798 9.92247C52.3329 9.92542 52.343 9.92997 52.3492 9.93278C52.4029 9.95561 52.6589 10.109 52.6589 10.6345C52.6589 11.6085 53.2435 12.374 54.818 12.6544C55.5316 12.7815 56.2673 12.7675 56.8892 12.7098C57.5157 12.6517 58.1236 12.5405 58.656 12.422C59.2866 12.2816 59.5422 11.9403 59.2269 11.6595C58.9116 11.3788 58.1448 11.265 57.5142 11.4054C57.0891 11.5 56.6997 11.5664 56.3686 11.5971C56.0328 11.6282 55.8509 11.6141 55.7664 11.5991C55.7376 11.594 55.2121 11.5016 55.2121 10.6345C55.2121 10.0237 54.948 9.46608 54.1143 9.11157C53.195 8.72068 52.0034 8.73957 51.059 8.86454C50.1127 8.98976 49.1253 9.252 48.1953 9.55841C47.2483 9.87042 46.2827 10.2545 45.3743 10.6589C44.5609 11.021 43.704 11.3198 42.9255 11.5285C42.6626 11.599 42.421 11.6559 42.203 11.701C41.6586 11.8135 41.3353 11.4013 41.7128 10.9932C42.2703 10.3906 42.4932 9.77035 42.0045 9.2366C41.4797 8.66341 40.3037 8.36135 38.935 8.26382C37.5975 8.16851 35.9316 8.25123 34.0153 8.48459C33.9774 8.4892 33.9394 8.49388 33.9012 8.49862C33.776 6.33361 32.7771 3.92026 29.7287 2.18623ZM28.7032 15.1815C29.3157 14.5686 29.7743 14.0017 30.0564 13.5936C30.5147 12.9306 31.0832 11.6362 31.2858 10.1129C30.3705 10.2826 29.3873 10.4833 28.3369 10.7171C27.4993 10.9035 26.6994 11.1119 25.9407 11.3376C26.2265 11.4135 26.5143 11.4882 26.8037 11.5619C27.4158 11.7176 27.6284 12.0648 27.2785 12.3373C26.9286 12.6098 26.1488 12.7044 25.5367 12.5487C24.9432 12.3976 24.3482 12.2402 23.7566 12.0757C21.3001 13.0139 19.4414 14.1231 18.349 15.1815H28.7032ZM17.4638 16.3181C17.2504 16.7391 17.1955 17.1228 17.2903 17.453C17.4524 18.018 18.0391 18.4193 19.0816 18.6513C20.3913 18.9428 21.5382 18.9125 22.6153 18.6897C23.7555 18.4539 24.8696 17.9883 25.9061 17.3717C26.4585 17.043 26.9677 16.6843 27.4292 16.3181H17.4638ZM27.195 9.70047C28.6923 9.36721 30.0823 9.0932 31.3612 8.87568C31.3604 8.81419 31.3588 8.75251 31.3566 8.69069C31.2783 6.56594 30.3327 4.37401 27.7181 2.88674C25.1053 1.4005 21.6741 0.943598 19.0302 1.20842C16.449 1.46696 14.3617 2.43421 14.3617 4.09933C14.3617 7.02696 18.4108 9.09167 23.6118 10.6766C24.7227 10.3136 25.9204 9.98419 27.195 9.70047Z" fill="black"/>
<path d="M9.51971 8.95447C10.0183 9.17641 10.0183 9.53624 9.51971 9.75817L6.91176 10.9192L9.51971 12.0802C10.0183 12.3021 10.0183 12.6619 9.51971 12.8839C9.02117 13.1058 8.21287 13.1058 7.71433 12.8839L5.10638 11.7229L2.49843 12.8839C1.99989 13.1058 1.1916 13.1058 0.693056 12.8839C0.194514 12.6619 0.194514 12.3021 0.693056 12.0802L3.301 10.9192L0.693056 9.75817C0.194514 9.53624 0.194514 9.17641 0.693056 8.95447C1.1916 8.73253 1.99989 8.73253 2.49843 8.95447L5.10638 10.1155L7.71433 8.95447C8.21287 8.73253 9.02117 8.73253 9.51971 8.95447Z" fill="black"/>
</g>
</svg>
