<svg width="36" height="34" viewBox="0 0 36 34" fill="none" xmlns="http://www.w3.org/2000/svg">
<g id="&#240;&#159;&#166;&#134; emoji &#34;waving hand sign&#34;">
<path id="Vector" d="M8.26533 26.6757C7.97223 26.6171 7.73776 26.5585 7.44466 26.4412C7.15156 26.324 6.91709 26.2654 6.68261 26.1481C6.15503 25.9136 5.68608 25.6205 5.21712 25.2688C4.27921 24.624 3.51716 23.7447 2.93097 22.6896C2.34477 21.693 1.99306 20.5207 1.93444 19.4069C1.87582 18.8207 1.93444 18.2931 1.99306 17.7069C2.05168 17.4138 2.1103 17.1794 2.16892 16.8863C2.22754 16.5932 2.34477 16.3587 2.40339 16.0656L2.46201 16.8863C2.46201 17.1794 2.52063 17.4138 2.57925 17.7069C2.63787 18.2345 2.75511 18.7621 2.87235 19.231C3.10683 20.2276 3.45854 21.1655 3.98612 22.0448C4.51369 22.9241 5.09988 23.7447 5.86194 24.5068C6.21365 24.8585 6.62399 25.2102 7.03432 25.5619C7.21018 25.7378 7.44466 25.9136 7.67914 26.0895L8.26533 26.6757ZM8.08947 28.786C7.91361 28.9032 7.67914 28.9618 7.44466 29.0205C7.21018 29.0791 7.03432 29.1377 6.79985 29.1377C6.38951 29.1963 5.92056 29.2549 5.4516 29.1963C4.57231 29.1377 3.6344 28.9032 2.87235 28.4929C2.05168 28.0826 1.34825 27.4377 0.879291 26.6757C0.644813 26.324 0.410336 25.9136 0.234478 25.5033C0.175858 25.3274 0.117239 25.093 0.0586193 24.8585C0.0586193 24.6826 0 24.5068 0 24.2723C0.175858 24.4482 0.293097 24.624 0.410336 24.7413C0.586194 24.9171 0.703433 25.093 0.820671 25.2102C1.11377 25.5033 1.34825 25.7964 1.64134 26.0309C2.22754 26.5585 2.81373 27.0274 3.51716 27.3791C4.16198 27.7308 4.92403 28.0239 5.62746 28.2584C5.97918 28.3757 6.38951 28.4343 6.79985 28.5515C6.97571 28.6101 7.21018 28.6101 7.38604 28.6688C7.67914 28.7274 7.855 28.7274 8.08947 28.786ZM21.3375 0.296978C21.6305 0.355597 21.865 0.472836 22.1581 0.590074C22.4512 0.707313 22.6857 0.824552 22.9202 0.941791C23.4477 1.23489 23.9167 1.52798 24.3857 1.8797C25.3236 2.58313 26.0856 3.52104 26.6132 4.57619C27.1408 5.63134 27.4339 6.80373 27.4339 7.9175C27.4339 8.50369 27.3752 9.03126 27.258 9.61746C27.1994 9.91055 27.1408 10.145 27.0235 10.4381C26.9063 10.7312 26.8477 10.9657 26.7304 11.2002L26.6718 10.3795C26.6718 10.0864 26.6718 9.85193 26.6132 9.55884L26.4373 7.97611C26.2615 6.97959 25.9098 5.98306 25.4408 5.04515C24.9719 4.10724 24.3857 3.28657 23.6822 2.52451C23.3305 2.11418 22.9202 1.76246 22.5685 1.35213C22.3926 1.17627 22.1581 1.00041 21.9236 0.824552L21.3375 0.296978ZM26.4373 0.0625C26.6718 0.121119 26.8477 0.179739 27.0235 0.296978C27.1994 0.355597 27.4339 0.472836 27.6097 0.590074C27.9614 0.824552 28.3132 1.05903 28.6649 1.35213C29.3097 1.93832 29.8373 2.64175 30.1304 3.46242C30.4821 4.28309 30.5993 5.16239 30.4821 6.04168C30.4235 6.45201 30.3062 6.86235 30.189 7.27268C30.1304 7.44854 30.0131 7.68302 29.9545 7.85888C29.8373 8.03473 29.7786 8.21059 29.6028 8.38645V7.80026V7.21406C29.6028 6.80373 29.5442 6.45201 29.5442 6.10029C29.4269 5.33824 29.3097 4.63481 29.0166 3.99C28.7235 3.28657 28.3718 2.70037 27.9614 2.05556C27.727 1.76246 27.4925 1.41075 27.258 1.11765C27.1408 0.941791 27.0235 0.824552 26.8477 0.648694C26.7304 0.355597 26.5546 0.179739 26.4373 0.0625Z" fill="#42ADE2"/>
<path id="Vector_2" d="M4.68951 8.79914C3.51712 9.32672 3.10679 10.7336 3.63436 11.906L11.0204 27.3229L15.1238 25.3884L7.73772 9.91291C7.21014 8.74052 5.8619 8.21295 4.68951 8.79914ZM24.0925 21.0506L28.4304 18.9989L19.9892 1.4131C19.403 0.240714 17.9961 -0.286861 16.7651 0.299333C15.5927 0.885527 15.0651 2.29239 15.6513 3.5234L24.0925 21.0506Z" fill="#FFDD67"/>
<path id="Vector_3" d="M16.8236 0.239474C16.7064 0.298093 16.5892 0.356712 16.4719 0.473951C17.5857 0.180854 18.7581 0.708429 19.2857 1.76358L27.7268 19.3494L28.4889 18.9977L20.0477 1.41186C19.4615 0.180854 18.0546 -0.34672 16.8236 0.239474Z" fill="#EBA352"/>
<path id="Vector_4" d="M15.1236 25.328L19.6373 23.1591L11.0203 5.22158C10.4341 3.99057 8.90996 3.40438 7.67895 3.99057C6.44794 4.57676 5.92037 6.10087 6.50656 7.33187L15.1236 25.328Z" fill="#FFDD67"/>
<path id="Vector_5" d="M7.67935 4.05074C7.56211 4.10936 7.44488 4.16798 7.32764 4.28522C8.4414 3.99212 9.73103 4.51969 10.2586 5.63346L15.593 16.8298L16.8826 17.5918L11.0207 5.28175C10.4345 3.99212 8.96898 3.46454 7.67935 4.05074Z" fill="#EBA352"/>
<path id="Vector_6" d="M18.9339 21.7508L23.4476 19.5819L14.8306 1.6444C14.2444 0.413392 12.7203 -0.172802 11.4893 0.472011C10.2582 1.0582 9.73067 2.58231 10.3169 3.81331L18.9339 21.7508Z" fill="#FFDD67"/>
<path id="Vector_7" d="M11.4895 0.41402C11.3722 0.472639 11.255 0.589878 11.1377 0.648497C12.2515 0.3554 13.5411 0.882975 14.0687 1.99674L20.1065 14.6585L21.3961 15.4206L14.8308 1.64503C14.2446 0.3554 12.7205 -0.172174 11.4895 0.41402ZM4.68961 8.79659C4.57237 8.85521 4.45513 8.91383 4.33789 9.03106C5.39304 8.73797 6.50681 9.26554 6.97576 10.3207L11.3722 19.5239L12.6618 20.286L7.73781 9.96898C7.21024 8.73797 5.86199 8.21039 4.68961 8.79659Z" fill="#EBA352"/>
<path id="Vector_8" d="M34.4681 7.0383C32.8853 5.8073 30.3061 7.15554 29.0165 11.3761C28.1372 14.3071 28.0199 15.1864 26.1441 16.0657L25.089 13.8968C25.089 13.8968 8.44107 21.9276 9.08589 23.2172C9.08589 23.2172 11.0789 29.4309 14.4789 32.3032C19.5201 36.6411 31.3026 32.0102 31.8302 20.8139C32.1233 14.3071 36.168 8.38655 34.4681 7.0383Z" fill="#FFDD67"/>
<g id="Group">
<path id="Vector_9" d="M34.468 7.03924C34.1749 6.80476 33.8232 6.68753 33.4715 6.62891C33.5301 6.68753 33.6473 6.68753 33.706 6.74614C35.4645 8.09439 33.6473 11.2012 32.6508 14.0149C31.8301 16.2425 31.1267 18.5286 31.2439 20.7562C31.7129 30.487 21.9235 35.1179 16.0615 33.3593C21.8062 35.7627 32.4749 31.1904 32.006 21.0493C31.8888 18.8217 32.5336 16.6528 33.4129 14.308C34.3508 11.4943 36.168 8.38749 34.468 7.03924Z" fill="#EBA352"/>
<path id="Vector_10" d="M26.6717 15.832C23.0373 16.2424 17.7029 21.4595 21.4546 27.1456C18.6994 21.4009 23.2131 17.532 26.0855 16.1837C26.3786 15.9493 26.6717 15.832 26.6717 15.832Z" fill="#EBA352"/>
</g>
</g>
</svg>
