<svg width="20" height="20" viewBox="0 0 20 20" fill="none" xmlns="http://www.w3.org/2000/svg">
<g id="Logout">
<g id="Iconly/Light-Outline/Logout">
<g id="Logout_2">
<path id="Combined-Shape" fill-rule="evenodd" clip-rule="evenodd" d="M9.42268 1.66797C11.461 1.66797 13.1193 3.3263 13.1193 5.36464V6.1413C13.1193 6.4863 12.8393 6.7663 12.4943 6.7663C12.1493 6.7663 11.8693 6.4863 11.8693 6.1413V5.36464C11.8693 4.01464 10.7718 2.91797 9.42268 2.91797H5.36018C4.01268 2.91797 2.91602 4.01464 2.91602 5.36464V14.6388C2.91602 15.988 4.01268 17.0846 5.36018 17.0846H9.43185C10.7752 17.0846 11.8693 15.9913 11.8693 14.648V13.8621C11.8693 13.5171 12.1493 13.2371 12.4943 13.2371C12.8393 13.2371 13.1193 13.5171 13.1193 13.8621V14.648C13.1193 16.6813 11.4643 18.3346 9.43185 18.3346H5.36018C3.32352 18.3346 1.66602 16.6771 1.66602 14.6388V5.36464C1.66602 3.3263 3.32352 1.66797 5.36018 1.66797H9.42268ZM16.1561 7.12964L18.5961 9.5588C18.6179 9.5804 18.6374 9.60286 18.6552 9.62663L18.5961 9.5588C18.6256 9.58791 18.6519 9.61972 18.6747 9.65364C18.6847 9.66901 18.6944 9.6849 18.7033 9.70123C18.7106 9.71399 18.7173 9.72731 18.7235 9.74086C18.7288 9.75282 18.7338 9.76479 18.7385 9.77694C18.7448 9.79278 18.7503 9.80906 18.7551 9.82556C18.7587 9.83855 18.7621 9.85152 18.765 9.86464C18.7687 9.88055 18.7717 9.89657 18.774 9.9127C18.7753 9.9232 18.7766 9.93419 18.7775 9.94527C18.7794 9.96427 18.7803 9.98275 18.7803 10.0013L18.776 10.053L18.7743 10.0861C18.7741 10.0875 18.7739 10.0889 18.7737 10.0903L18.7803 10.0013C18.7803 10.0476 18.7751 10.0934 18.7652 10.1379C18.7621 10.1511 18.7587 10.1641 18.755 10.1768C18.7503 10.1935 18.7448 10.2098 18.7386 10.2258C18.7338 10.2378 18.7288 10.2498 18.7234 10.2616C18.7173 10.2753 18.7106 10.2886 18.7034 10.3017C18.6944 10.3177 18.6847 10.3336 18.6744 10.349C18.6685 10.3581 18.6621 10.3672 18.6554 10.376C18.6356 10.4021 18.614 10.4267 18.5906 10.4494L16.1561 12.8738C16.0344 12.9955 15.8744 13.0563 15.7153 13.0563C15.5553 13.0563 15.3944 12.9955 15.2728 12.8721C15.0294 12.6271 15.0303 12.2321 15.2744 11.9888L16.641 10.6263H8.12085C7.77585 10.6263 7.49585 10.3463 7.49585 10.0013C7.49585 9.6563 7.77585 9.3763 8.12085 9.3763H16.6427L15.2744 8.01464C15.0303 7.7713 15.0286 7.3763 15.2728 7.1313C15.5161 6.8863 15.9111 6.8863 16.1561 7.12964Z" fill="#F04438"/>
</g>
</g>
</g>
</svg>
