<svg width="16" height="16" viewBox="0 0 16 16" fill="none" xmlns="http://www.w3.org/2000/svg">
<g id="Notification">
<g id="Iconly/Light-Outline/Notification">
<g id="Notification_2">
<path id="Combined-Shape" fill-rule="evenodd" clip-rule="evenodd" d="M6.88282 13.4053C7.22815 13.79 7.67148 14.0013 8.13148 14.0013H8.13215C8.59415 14.0013 9.03948 13.79 9.38548 13.4046C9.57082 13.2 9.88682 13.1833 10.0915 13.368C10.2968 13.5526 10.3135 13.8693 10.1288 14.074C9.59015 14.672 8.88148 15.0013 8.13215 15.0013H8.13082C7.38348 15.0006 6.67615 14.6713 6.13948 14.0733C5.95482 13.8686 5.97148 13.552 6.17682 13.368C6.38215 13.1826 6.69815 13.1993 6.88282 13.4053ZM8.16468 0.667969C11.128 0.667969 13.1187 2.97597 13.1187 5.1313C13.1187 6.23997 13.4007 6.70997 13.7 7.20864C13.996 7.70064 14.3314 8.2593 14.3314 9.3153C14.0987 12.0133 11.282 12.2333 8.16468 12.2333C5.04735 12.2333 2.23002 12.0133 2.00001 9.35797C1.99802 8.2593 2.33335 7.70064 2.62935 7.20864L2.73385 7.03274C2.99113 6.59054 3.21068 6.10954 3.21068 5.1313C3.21068 2.97597 5.20135 0.667969 8.16468 0.667969ZM8.16468 1.66797C5.83468 1.66797 4.21068 3.4933 4.21068 5.1313C4.21068 6.5173 3.82602 7.15797 3.48602 7.7233C3.21335 8.1773 2.99802 8.53597 2.99802 9.3153C3.10935 10.5726 3.93935 11.2333 8.16468 11.2333C12.3667 11.2333 13.2227 10.5433 13.3333 9.27197C13.3313 8.53597 13.116 8.1773 12.8434 7.7233C12.5034 7.15797 12.1187 6.5173 12.1187 5.1313C12.1187 3.4933 10.4947 1.66797 8.16468 1.66797Z" fill="#FCFCFD"/>
</g>
</g>
</g>
</svg>
