<svg width="20" height="20" viewBox="0 0 20 20" fill="none" xmlns="http://www.w3.org/2000/svg">
<g id="material-symbols:amend-outline-rounded">
<path id="Vector" d="M6.66602 13.3346H13.3327C13.5688 13.3346 13.7668 13.2546 13.9268 13.0946C14.0868 12.9346 14.1666 12.7369 14.166 12.5013C14.166 12.2652 14.086 12.0671 13.926 11.9071C13.766 11.7471 13.5682 11.6674 13.3327 11.668H6.66602C6.4299 11.668 6.23185 11.748 6.07185 11.908C5.91185 12.068 5.83213 12.2657 5.83268 12.5013C5.83268 12.7374 5.91268 12.9355 6.07268 13.0955C6.23268 13.2555 6.43046 13.3352 6.66602 13.3346ZM7.97852 8.7513C8.25629 8.48741 8.56879 8.28241 8.91602 8.1363C9.26324 7.99019 9.62435 7.91741 9.99935 7.91797C10.5549 7.91797 11.0618 8.07075 11.5202 8.3763C11.9785 8.68186 12.3257 9.08464 12.5618 9.58464C12.6313 9.73741 12.746 9.84158 12.906 9.89713C13.066 9.95269 13.2221 9.94575 13.3743 9.8763C13.541 9.80686 13.6591 9.69575 13.7285 9.54297C13.798 9.39019 13.791 9.23741 13.7077 9.08463C13.3466 8.36241 12.836 7.77908 12.176 7.33464C11.516 6.89019 10.7905 6.66797 9.99935 6.66797C9.45768 6.66797 8.93324 6.77214 8.42602 6.98047C7.91879 7.1888 7.47102 7.48741 7.08268 7.8763V7.29297C7.08268 7.11241 7.02352 6.96325 6.90518 6.84547C6.78685 6.72769 6.63768 6.66852 6.45768 6.66797C6.27713 6.66797 6.12796 6.72714 6.01018 6.84547C5.8924 6.9638 5.83324 7.11297 5.83268 7.29297V9.3763C5.83268 9.55686 5.89185 9.70602 6.01018 9.8238C6.12852 9.94158 6.27768 10.0007 6.45768 10.0013H8.54102C8.72157 10.0013 8.87074 9.94213 8.98852 9.8238C9.10629 9.70547 9.16546 9.5563 9.16602 9.3763C9.16602 9.19575 9.10685 9.04658 8.98852 8.9288C8.87018 8.81102 8.72102 8.75186 8.54102 8.7513H7.97852ZM9.99935 18.3346C8.84657 18.3346 7.76324 18.1157 6.74935 17.678C5.73546 17.2402 4.85352 16.6466 4.10352 15.8971C3.35352 15.1471 2.7599 14.2652 2.32268 13.2513C1.88546 12.2374 1.66657 11.1541 1.66602 10.0013C1.66602 8.84852 1.8849 7.76519 2.32268 6.7513C2.76046 5.73741 3.35407 4.85547 4.10352 4.10547C4.85352 3.35547 5.73546 2.76186 6.74935 2.32464C7.76324 1.88741 8.84657 1.66852 9.99935 1.66797C11.1521 1.66797 12.2355 1.88686 13.2493 2.32464C14.2632 2.76241 15.1452 3.35602 15.8952 4.10547C16.6452 4.85547 17.2391 5.73741 17.6768 6.7513C18.1146 7.76519 18.3332 8.84852 18.3327 10.0013C18.3327 11.1541 18.1138 12.2374 17.676 13.2513C17.2382 14.2652 16.6446 15.1471 15.8952 15.8971C15.1452 16.6471 14.2632 17.241 13.2493 17.6788C12.2355 18.1166 11.1521 18.3352 9.99935 18.3346ZM9.99935 16.668C11.8605 16.668 13.4368 16.0221 14.7285 14.7305C16.0202 13.4388 16.666 11.8624 16.666 10.0013C16.666 8.14019 16.0202 6.5638 14.7285 5.27214C13.4368 3.98047 11.8605 3.33464 9.99935 3.33464C8.13824 3.33464 6.56185 3.98047 5.27018 5.27214C3.97852 6.5638 3.33268 8.14019 3.33268 10.0013C3.33268 11.8624 3.97852 13.4388 5.27018 14.7305C6.56185 16.0221 8.13824 16.668 9.99935 16.668Z" fill="#B3D4CC"/>
</g>
</svg>
