<svg width="21" height="20" viewBox="0 0 21 20" fill="none" xmlns="http://www.w3.org/2000/svg">
<g id="healthicons:accident-and-emergency-outline">
<g id="Group">
<path id="Vector" fill-rule="evenodd" clip-rule="evenodd" d="M16.75 3.33333H4.25C4.13949 3.33333 4.03351 3.37723 3.95537 3.45537C3.87723 3.53351 3.83333 3.63949 3.83333 3.75V16.25C3.83333 16.3605 3.87723 16.4665 3.95537 16.5446C4.03351 16.6228 4.13949 16.6667 4.25 16.6667H16.75C16.8605 16.6667 16.9665 16.6228 17.0446 16.5446C17.1228 16.4665 17.1667 16.3605 17.1667 16.25V3.75C17.1667 3.63949 17.1228 3.53351 17.0446 3.45537C16.9665 3.37723 16.8605 3.33333 16.75 3.33333ZM4.25 2.5C3.91848 2.5 3.60054 2.6317 3.36612 2.86612C3.1317 3.10054 3 3.41848 3 3.75V16.25C3 16.5815 3.1317 16.8995 3.36612 17.1339C3.60054 17.3683 3.91848 17.5 4.25 17.5H16.75C17.0815 17.5 17.3995 17.3683 17.6339 17.1339C17.8683 16.8995 18 16.5815 18 16.25V3.75C18 3.41848 17.8683 3.10054 17.6339 2.86612C17.3995 2.6317 17.0815 2.5 16.75 2.5H4.25Z" fill="#F3F8F7"/>
<path id="Vector_2" fill-rule="evenodd" clip-rule="evenodd" d="M9.03643 6.80557C8.35185 6.92391 7.8531 7.50391 7.77143 8.19391L7.16602 13.3347H13.8327L13.226 8.18682C13.1452 7.50016 12.651 6.92141 11.9702 6.80224C10.9493 6.62349 10.0985 6.62182 9.03643 6.80557ZM9.55352 8.60474C9.56445 8.49649 9.53261 8.38826 9.46481 8.30318C9.397 8.21809 9.2986 8.1629 9.19064 8.14941C9.08268 8.13591 8.97373 8.16518 8.88706 8.23096C8.8004 8.29673 8.74289 8.3938 8.72685 8.50141L8.34977 11.5172C8.34157 11.5722 8.34445 11.6282 8.35822 11.682C8.372 11.7358 8.39639 11.7863 8.42998 11.8306C8.46356 11.8748 8.50565 11.9119 8.55377 11.9397C8.60189 11.9674 8.65508 11.9852 8.71019 11.9921C8.76531 11.999 8.82125 11.9948 8.87472 11.9798C8.9282 11.9647 8.97812 11.9392 9.02156 11.9045C9.065 11.8699 9.10108 11.827 9.12767 11.7782C9.15427 11.7294 9.17085 11.6758 9.17643 11.6206L9.55352 8.60474Z" fill="#F3F8F7"/>
<path id="Vector_3" fill-rule="evenodd" clip-rule="evenodd" d="M9.86417 7.53349C10.0484 7.6643 10.1937 7.8426 10.2847 8.04942C10.3757 8.25625 10.4089 8.48387 10.3808 8.70807L10.0042 11.7239C9.965 12.0364 9.81417 12.3072 9.59583 12.5014H12.8958L12.3992 8.28432C12.3567 7.92182 12.1058 7.67182 11.8275 7.62307C11.1313 7.50141 10.5317 7.47016 9.86417 7.53349ZM13.2267 8.18682C13.1458 7.50016 12.6517 6.92141 11.9708 6.80224C10.95 6.62349 10.0992 6.62182 9.03708 6.80557C8.3525 6.92391 7.85375 7.50391 7.77208 8.19391L7.16667 13.3347H13.8333L13.2267 8.18682ZM9.55417 8.60474L9.17708 11.6206C9.1715 11.6758 9.15492 11.7294 9.12833 11.7782C9.10173 11.827 9.06565 11.8699 9.02221 11.9045C8.97877 11.9392 8.92885 11.9647 8.87538 11.9798C8.8219 11.9948 8.76596 11.999 8.71085 11.9921C8.65573 11.9852 8.60254 11.9674 8.55442 11.9397C8.5063 11.9119 8.46421 11.8748 8.43063 11.8306C8.39704 11.7863 8.37265 11.7358 8.35887 11.682C8.3451 11.6282 8.34222 11.5722 8.35042 11.5172L8.7275 8.50141C8.73308 8.44614 8.74966 8.39255 8.77626 8.34378C8.80286 8.29502 8.83893 8.25206 8.88237 8.21744C8.92581 8.18282 8.97574 8.15724 9.02921 8.1422C9.08268 8.12715 9.13862 8.12295 9.19374 8.12984C9.24886 8.13673 9.30204 8.15457 9.35016 8.18232C9.39829 8.21006 9.44038 8.24714 9.47396 8.29139C9.50754 8.33564 9.53193 8.38615 9.54571 8.43996C9.55948 8.49378 9.56236 8.5498 9.55417 8.60474ZM14.25 15.0014H6.75V14.1681H14.25V15.0014Z" fill="#F3F8F7"/>
<path id="Vector_4" d="M5.91602 10.0013C5.91602 10.1417 5.92227 10.2805 5.93477 10.418H4.66602V9.58464H5.93477C5.92227 9.72214 5.91602 9.86089 5.91602 10.0013ZM6.75435 7.35797C6.59365 7.58533 6.45404 7.82689 6.33727 8.07964L5.23935 7.44547L5.65602 6.7238L6.75435 7.35797ZM8.57727 5.8388C8.32352 5.95672 8.08227 6.09672 7.85643 6.2563L7.22185 5.15797L7.94352 4.7413L8.57727 5.8388ZM10.4993 5.41797C10.3589 5.41797 10.2202 5.42422 10.0827 5.43672V4.16797H10.916V5.43672C10.7775 5.42425 10.6384 5.41799 10.4993 5.41797ZM13.1427 6.2563C12.9153 6.09562 12.6738 5.95602 12.421 5.83922L13.0552 4.7413L13.7768 5.15797L13.1427 6.2563ZM14.6618 8.07922C14.5449 7.82674 14.4051 7.58547 14.2443 7.35839L15.3427 6.7238L15.7593 7.44547L14.6614 8.07922H14.6618ZM15.0827 10.0013C15.0827 9.86089 15.0764 9.72214 15.0639 9.58464H16.3327V10.418H15.0639C15.0764 10.2805 15.0827 10.1417 15.0827 10.0013Z" fill="#F3F8F7"/>
</g>
</g>
</svg>
