<svg width="21" height="20" viewBox="0 0 21 20" fill="none" xmlns="http://www.w3.org/2000/svg">
<g id="mdi:register">
<path id="Vector" d="M13.0007 11.6654C10.7757 11.6654 6.33398 12.7737 6.33398 14.9987V16.6654H19.6673V14.9987C19.6673 12.7737 15.2257 11.6654 13.0007 11.6654ZM5.50065 8.33203V5.83203H3.83398V8.33203H1.33398V9.9987H3.83398V12.4987H5.50065V9.9987H8.00065V8.33203M13.0007 9.9987C13.8847 9.9987 14.7326 9.64751 15.3577 9.02239C15.9828 8.39727 16.334 7.54942 16.334 6.66536C16.334 5.78131 15.9828 4.93346 15.3577 4.30834C14.7326 3.68322 13.8847 3.33203 13.0007 3.33203C12.1166 3.33203 11.2688 3.68322 10.6436 4.30834C10.0185 4.93346 9.66732 5.78131 9.66732 6.66536C9.66732 7.54942 10.0185 8.39727 10.6436 9.02239C11.2688 9.64751 12.1166 9.9987 13.0007 9.9987Z" fill="#F3F8F7"/>
</g>
</svg>
