<svg width="20" height="20" viewBox="0 0 20 20" fill="none" xmlns="http://www.w3.org/2000/svg">
<g id="mdi:file-replace-outline">
<path id="Vector" d="M10.4589 2.4987C10.9044 2.4987 11.1274 1.96013 10.8125 1.64514L10.1458 0.978478C10.052 0.88471 9.92485 0.832031 9.79224 0.832031H3.33268C2.89065 0.832031 2.46673 1.00763 2.15417 1.32019C1.84161 1.63275 1.66602 2.05667 1.66602 2.4987V12.4987C1.66602 12.9407 1.84161 13.3646 2.15417 13.6772C2.46673 13.9898 2.89065 14.1654 3.33268 14.1654H8.66602C8.94216 14.1654 9.16602 14.3892 9.16602 14.6654V14.832C9.16602 15.2441 9.6364 15.4792 9.96602 15.232L11.966 13.732C12.2327 13.532 12.2327 13.132 11.966 12.932L9.96602 11.432C9.6364 11.1848 9.16602 11.42 9.16602 11.832V11.9987C9.16602 12.2748 8.94216 12.4987 8.66602 12.4987H3.83268C3.55654 12.4987 3.33268 12.2748 3.33268 11.9987V2.9987C3.33268 2.72256 3.55654 2.4987 3.83268 2.4987H10.4589ZM17.3529 8.18559C17.4467 8.27935 17.4993 8.40653 17.4993 8.53914V17.4987C17.4993 17.9407 17.3238 18.3646 17.0112 18.6772C16.6986 18.9898 16.2747 19.1654 15.8327 19.1654H6.66602C6.22399 19.1654 5.80007 18.9898 5.4875 18.6772C5.17494 18.3646 4.99935 17.9407 4.99935 17.4987V16.332C4.99935 16.0559 5.22321 15.832 5.49935 15.832H6.16602C6.44216 15.832 6.66602 16.0559 6.66602 16.332V16.9987C6.66602 17.2748 6.88987 17.4987 7.16602 17.4987H15.3327C15.6088 17.4987 15.8327 17.2748 15.8327 16.9987V10.4987C15.8327 10.2226 15.6088 9.9987 15.3327 9.9987H12.166C11.8899 9.9987 11.666 9.77484 11.666 9.4987V6.33203C11.666 6.05589 11.4422 5.83203 11.166 5.83203H7.16602C6.88987 5.83203 6.66602 6.05589 6.66602 6.33203V10.332C6.66602 10.6082 6.44216 10.832 6.16602 10.832H5.49935C5.22321 10.832 4.99935 10.6082 4.99935 10.332V5.83203C4.99935 5.39 5.17494 4.96608 5.4875 4.65352C5.80007 4.34096 6.22399 4.16536 6.66602 4.16536H13.1256C13.2582 4.16536 13.3854 4.21804 13.4791 4.31181L17.3529 8.18559Z" fill="#F3F8F7"/>
</g>
</svg>
