<svg width="25" height="29" viewBox="0 0 25 29" fill="none" xmlns="http://www.w3.org/2000/svg">
<path fill-rule="evenodd" clip-rule="evenodd" d="M9.76563 25.8067C10.4563 26.576 11.343 26.9987 12.263 26.9987H12.2643C13.1883 26.9987 14.079 26.576 14.771 25.8054C15.1416 25.396 15.7736 25.3627 16.183 25.732C16.5936 26.1014 16.627 26.7347 16.2576 27.144C15.1803 28.34 13.763 28.9987 12.2643 28.9987H12.2616C10.767 28.9974 9.3523 28.3387 8.27897 27.1427C7.90964 26.7334 7.94297 26.1 8.35363 25.732C8.7643 25.3614 9.3963 25.3947 9.76563 25.8067ZM12.3294 0.332031C18.256 0.332031 22.2374 4.94803 22.2374 9.2587C22.2374 11.476 22.8014 12.416 23.4 13.4134C23.992 14.3974 24.6627 15.5147 24.6627 17.6267C24.1974 23.0227 18.564 23.4627 12.3294 23.4627C6.0947 23.4627 0.460035 23.0227 1.76484e-05 17.712C-0.00396455 15.5147 0.666702 14.3974 1.2587 13.4134L1.46769 13.0616C1.98227 12.1772 2.42137 11.2152 2.42137 9.2587C2.42137 4.94803 6.4027 0.332031 12.3294 0.332031ZM12.3294 2.33203C7.66937 2.33203 4.42137 5.9827 4.42137 9.2587C4.42137 12.0307 3.65204 13.312 2.97204 14.4427C2.4267 15.3507 1.99604 16.068 1.99604 17.6267C2.2187 20.1414 3.8787 21.4627 12.3294 21.4627C20.7334 21.4627 22.4454 20.0827 22.6667 17.54C22.6627 16.068 22.232 15.3507 21.6867 14.4427C21.0067 13.312 20.2374 12.0307 20.2374 9.2587C20.2374 5.9827 16.9894 2.33203 12.3294 2.33203Z" fill="#1A7D65"/>
</svg>
