<svg width="18" height="21" viewBox="0 0 18 21" fill="none" xmlns="http://www.w3.org/2000/svg">
<g id="Iconly/Bold/Document">
<g id="Document">
<path id="Vector" d="M13.191 0.0976562C16.28 0.0976562 18 1.87766 18 4.92766V15.2577C18 18.3577 16.28 20.0977 13.191 20.0977H4.81C1.77 20.0977 0 18.3577 0 15.2577V4.92766C0 1.87766 1.77 0.0976562 4.81 0.0976562H13.191ZM5.08 13.8377C4.78 13.8077 4.49 13.9477 4.33 14.2077C4.17 14.4577 4.17 14.7877 4.33 15.0477C4.49 15.2977 4.78 15.4477 5.08 15.4077H12.92C13.319 15.3677 13.62 15.0267 13.62 14.6277C13.62 14.2177 13.319 13.8777 12.92 13.8377H5.08ZM12.92 9.27666H5.08C4.649 9.27666 4.3 9.62766 4.3 10.0577C4.3 10.4877 4.649 10.8377 5.08 10.8377H12.92C13.35 10.8377 13.7 10.4877 13.7 10.0577C13.7 9.62766 13.35 9.27666 12.92 9.27666ZM8.069 4.74766H5.08V4.75766C4.649 4.75766 4.3 5.10766 4.3 5.53766C4.3 5.96766 4.649 6.31766 5.08 6.31766H8.069C8.5 6.31766 8.85 5.96766 8.85 5.52666C8.85 5.09766 8.5 4.74766 8.069 4.74766Z" fill="#166854"/>
</g>
</g>
</svg>
