<svg width="24" height="24" viewBox="0 0 24 24" fill="none" xmlns="http://www.w3.org/2000/svg">
<g id="Logout">
<g id="Iconly/Light-Outline/Logout">
<g id="Logout_2">
<path id="Combined-Shape" fill-rule="evenodd" clip-rule="evenodd" d="M11.308 2C13.754 2 15.744 3.99 15.744 6.436V7.368C15.744 7.782 15.408 8.118 14.994 8.118C14.58 8.118 14.244 7.782 14.244 7.368V6.436C14.244 4.816 12.927 3.5 11.308 3.5H6.433C4.816 3.5 3.5 4.816 3.5 6.436V17.565C3.5 19.184 4.816 20.5 6.433 20.5H11.319C12.931 20.5 14.244 19.188 14.244 17.576V16.633C14.244 16.219 14.58 15.883 14.994 15.883C15.408 15.883 15.744 16.219 15.744 16.633V17.576C15.744 20.016 13.758 22 11.319 22H6.433C3.989 22 2 20.011 2 17.565V6.436C2 3.99 3.989 2 6.433 2H11.308ZM19.3881 8.554L22.3161 11.469C22.3422 11.4949 22.3656 11.5219 22.387 11.5504L22.3161 11.469C22.3515 11.5039 22.383 11.5421 22.4104 11.5828C22.4224 11.6012 22.434 11.6203 22.4448 11.6399C22.4535 11.6552 22.4615 11.6712 22.469 11.6875C22.4753 11.7018 22.4814 11.7162 22.487 11.7308C22.4945 11.7498 22.5011 11.7693 22.5069 11.7891C22.5113 11.8047 22.5153 11.8203 22.5188 11.836C22.5233 11.8551 22.5268 11.8743 22.5295 11.8937C22.5311 11.9063 22.5326 11.9195 22.5338 11.9328C22.5361 11.9556 22.5371 11.9777 22.5371 12L22.532 12.062L22.5299 12.1017C22.5297 12.1034 22.5295 12.1051 22.5292 12.1068L22.5371 12C22.5371 12.0555 22.531 12.1105 22.519 12.1639C22.5153 12.1797 22.5113 12.1953 22.5068 12.2107C22.5011 12.2307 22.4945 12.2502 22.4871 12.2695C22.4814 12.2838 22.4753 12.2982 22.4688 12.3123C22.4615 12.3288 22.4535 12.3448 22.4449 12.3605C22.434 12.3797 22.4224 12.3988 22.41 12.4172C22.403 12.4282 22.3953 12.439 22.3873 12.4497C22.3635 12.481 22.3375 12.5104 22.3095 12.5377L19.3881 15.447C19.2421 15.593 19.0501 15.666 18.8591 15.666C18.6671 15.666 18.4741 15.593 18.3281 15.445C18.0361 15.151 18.0371 14.677 18.3301 14.385L19.97 12.75H9.7458C9.3318 12.75 8.9958 12.414 8.9958 12C8.9958 11.586 9.3318 11.25 9.7458 11.25H19.972L18.3301 9.616C18.0371 9.324 18.0351 8.85 18.3281 8.556C18.6201 8.262 19.0941 8.262 19.3881 8.554Z" fill="#D1E5E0"/>
</g>
</g>
</g>
</svg>
