<svg width="24" height="25" viewBox="0 0 24 25" fill="none" xmlns="http://www.w3.org/2000/svg">
<g id="More Circle">
<g id="More-Circle">
<path id="Combined-Shape" fill-rule="evenodd" clip-rule="evenodd" d="M12 2.09766C17.514 2.09766 22 6.58366 22 12.0977C22 17.6117 17.514 22.0977 12 22.0977C6.486 22.0977 2 17.6117 2 12.0977C2 6.58366 6.486 2.09766 12 2.09766ZM12 3.59766C7.313 3.59766 3.5 7.41066 3.5 12.0977C3.5 16.7847 7.313 20.5977 12 20.5977C16.687 20.5977 20.5 16.7847 20.5 12.0977C20.5 7.41066 16.687 3.59766 12 3.59766ZM15.9482 11.1114C16.5012 11.1114 16.9482 11.5584 16.9482 12.1114C16.9482 12.6644 16.5012 13.1114 15.9482 13.1114C15.3952 13.1114 14.9432 12.6644 14.9432 12.1114C14.9432 11.5584 15.3862 11.1114 15.9382 11.1114H15.9482ZM11.9385 11.1114C12.4915 11.1114 12.9385 11.5584 12.9385 12.1114C12.9385 12.6644 12.4915 13.1114 11.9385 13.1114C11.3855 13.1114 10.9345 12.6644 10.9345 12.1114C10.9345 11.5584 11.3765 11.1114 11.9295 11.1114H11.9385ZM7.9297 11.1114C8.4827 11.1114 8.9297 11.5584 8.9297 12.1114C8.9297 12.6644 8.4827 13.1114 7.9297 13.1114C7.3767 13.1114 6.9247 12.6644 6.9247 12.1114C6.9247 11.5584 7.3677 11.1114 7.9207 11.1114H7.9297Z" fill="#1D2939"/>
</g>
</g>
</svg>
