<svg width="50" height="43" viewBox="0 0 50 43" fill="none" xmlns="http://www.w3.org/2000/svg">
<g id="Upload icon">
<path id="Vector" d="M26.1457 10.4165L26.2455 10.4463L26.2517 10.4391C26.5759 10.4818 26.8906 10.2833 26.986 9.96141C27.8023 7.21865 30.3744 5.3022 33.2397 5.3022C33.6128 5.3022 33.9154 4.99961 33.9154 4.62654C33.9154 4.25345 33.6128 3.95088 33.2397 3.95088C29.6623 3.95088 26.6563 6.33274 25.6911 9.57627C25.5844 9.93402 25.7883 10.3099 26.1457 10.4165Z" fill="#1A7D65" stroke="#F9FFF9" stroke-width="0.322847"/>
<path id="Vector_2" d="M40.4378 29.8239H37.3524C37.0685 29.8239 36.8382 29.5936 36.8382 29.3097C36.8382 29.0257 37.0685 28.7954 37.3524 28.7954H40.4378C44.6908 28.7954 48.1512 25.335 48.1512 21.082C48.1512 16.829 44.6908 13.3686 40.4378 13.3686H40.3636C40.2144 13.3686 40.0727 13.3039 39.975 13.1912C39.8773 13.0784 39.8332 12.9289 39.8545 12.7812C39.9004 12.461 39.9235 12.1392 39.9235 11.8259C39.9235 8.13999 36.9244 5.14089 33.2385 5.14089C31.8046 5.14089 30.4371 5.589 29.2837 6.4371C29.0302 6.62333 28.6703 6.54068 28.5237 6.26189C25.2573 0.0419541 16.7257 -0.79332 12.3025 4.61748C10.4392 6.89697 9.70708 9.86223 10.2937 12.7523C10.3584 13.0714 10.1141 13.369 9.78979 13.369H9.58373C5.33073 13.369 1.8703 16.8294 1.8703 21.0824C1.8703 25.3354 5.33073 28.7958 9.58373 28.7958H12.6691C12.953 28.7958 13.1833 29.0261 13.1833 29.3101C13.1833 29.594 12.953 29.8243 12.6691 29.8243H9.58373C4.76353 29.8243 0.841797 25.9026 0.841797 21.0824C0.841797 16.3974 4.54642 12.5612 9.18006 12.3496C8.7448 9.35129 9.57712 6.32689 11.5062 3.96662C16.2418 -1.82689 25.3174 -1.17751 29.1539 5.28268C30.3778 4.51537 31.7782 4.11284 33.2384 4.11284C37.7041 4.11284 41.2427 7.91375 40.9331 12.3544C45.524 12.6119 49.1795 16.4278 49.1795 21.082C49.1795 25.9026 45.2577 29.8239 40.4375 29.8239L40.4378 29.8239Z" fill="#1A7D65"/>
<path id="Vector_3" d="M11.9245 29.0192C11.9245 36.1971 17.764 42.0365 24.9418 42.0365C32.1197 42.0365 37.9591 36.197 37.9591 29.0192C37.9591 21.8413 32.1197 16.0019 24.9418 16.0019C17.7639 16.0019 11.9245 21.8414 11.9245 29.0192ZM13.2761 29.0192C13.2761 22.5869 18.5095 17.3534 24.9418 17.3534C31.3741 17.3534 36.6076 22.5869 36.6076 29.0192C36.6076 35.4514 31.3741 40.6849 24.9418 40.6849C18.5096 40.6849 13.2761 35.4515 13.2761 29.0192Z" fill="#1A7D65" stroke="#F9FFF9" stroke-width="0.322847"/>
<g id="arrow">
<path id="Vector_4" d="M24.6384 34.1944C24.6384 34.4914 24.8793 34.7323 25.1763 34.7323C25.4732 34.7323 25.7142 34.4918 25.7142 34.1944V24.406C25.7142 24.109 25.4733 23.8681 25.1763 23.8681C24.8793 23.8681 24.6384 24.109 24.6384 24.406V34.1944Z" fill="#1A7D65" stroke="#1A7D65" stroke-width="0.322847"/>
<path id="Vector_5" d="M25.1764 25.1675L22.5451 27.7988L25.1764 25.1675ZM25.1764 25.1675L27.8078 27.7989C27.9127 27.9038 28.0508 27.9565 28.1882 27.9565L25.1764 25.1675ZM21.7843 27.7989C21.9943 28.009 22.335 28.0092 22.545 27.7989L28.1882 27.9565C28.3252 27.9565 28.4635 27.9043 28.5686 27.7988C28.7786 27.5887 28.7786 27.2483 28.5685 27.0382L25.5568 24.0264C25.3467 23.8164 25.006 23.8162 24.796 24.0264C24.796 24.0265 24.796 24.0265 24.796 24.0265C24.796 24.0265 24.7959 24.0265 24.7959 24.0266L21.7843 27.0382C21.5741 27.2483 21.5741 27.5888 21.7843 27.7989Z" fill="#1A7D65" stroke="#1A7D65" stroke-width="0.322847"/>
</g>
</g>
</svg>
