<svg width="24" height="20" viewBox="0 0 24 20" fill="none" xmlns="http://www.w3.org/2000/svg">
<g id="Arrow---Left">
<path id="Combined-Shape" d="M24.0001 9.9998C24.0001 9.44751 23.5897 8.99108 23.0572 8.91885L22.9092 8.90889L3.73242 8.90976L10.6604 2.01008C11.0873 1.58497 11.0888 0.894249 10.6637 0.467306C10.2773 0.0791759 9.67129 0.0426617 9.24353 0.35862L9.12095 0.463984L0.320953 9.22617C0.264675 9.2822 0.215794 9.34285 0.174307 9.40689C0.16259 9.42617 0.150661 9.44589 0.139353 9.46601C0.128952 9.48325 0.119555 9.50116 0.110687 9.51926C0.0983715 9.5456 0.086338 9.57282 0.0754147 9.60059C0.0665379 9.622 0.0591259 9.64282 0.0523643 9.66381C0.0443268 9.68984 0.0365181 9.71757 0.0298004 9.74573C0.024807 9.76539 0.020853 9.78431 0.0174026 9.80331C0.0125523 9.83157 0.00842285 9.86082 0.005476 9.89041C0.00293159 9.91299 0.00139999 9.93535 0.000555038 9.95774C0.000335693 9.97131 6.10352e-05 9.98552 6.10352e-05 9.9998L0.000606537 10.0421C0.00144386 10.0635 0.00290489 10.0849 0.00499535 10.1062L6.10352e-05 9.9998C6.10352e-05 10.0686 0.0064373 10.136 0.018631 10.2013C0.0214596 10.2169 0.0248299 10.2329 0.0285606 10.2488C0.0363102 10.2817 0.0452652 10.3133 0.0555782 10.3443C0.0606384 10.3597 0.066534 10.3762 0.0728359 10.3925C0.0855846 10.4253 0.0994415 10.4566 0.114685 10.4871C0.121765 10.5014 0.129698 10.5164 0.138002 10.5313C0.151636 10.5555 0.16568 10.5786 0.180531 10.601C0.191008 10.6169 0.20261 10.6334 0.214727 10.6497L0.224167 10.6623C0.253559 10.7007 0.285442 10.737 0.31958 10.7712L0.320889 10.7722L9.12089 19.5358C9.5478 19.961 10.2385 19.9595 10.6637 19.5326C11.0502 19.1445 11.0841 18.5384 10.7663 18.112L10.6605 17.9899L3.73533 11.0916L22.9092 11.0907C23.5116 11.0907 24.0001 10.6023 24.0001 9.9998Z" fill="#1A7D65"/>
</g>
</svg>
