<svg width="25" height="20" viewBox="0 0 25 20" fill="none" xmlns="http://www.w3.org/2000/svg">
<g id="Arrow---Left">
<path id="Combined-Shape" d="M0.5 10.0004C0.5 10.5527 0.910406 11.0092 1.44288 11.0814L1.59091 11.0914L20.7676 11.0905L13.8397 17.9902C13.4127 18.4153 13.4112 19.106 13.8363 19.5329C14.2228 19.9211 14.8288 19.9576 15.2565 19.6416L15.3791 19.5363L24.1791 10.7741C24.2354 10.718 24.2843 10.6574 24.3258 10.5934C24.3375 10.5741 24.3494 10.5544 24.3607 10.5342C24.3711 10.517 24.3805 10.4991 24.3894 10.481C24.4017 10.4546 24.4137 10.4274 24.4246 10.3997C24.4335 10.3782 24.4409 10.3574 24.4477 10.3364C24.4557 10.3104 24.4635 10.2827 24.4703 10.2545C24.4753 10.2349 24.4792 10.2159 24.4827 10.1969C24.4875 10.1687 24.4916 10.1394 24.4946 10.1098C24.4971 10.0873 24.4987 10.0649 24.4995 10.0425C24.4997 10.0289 24.5 10.0147 24.5 10.0004L24.4995 9.95819C24.4986 9.93678 24.4972 9.91539 24.4951 9.89404L24.5 10.0004C24.5 9.93161 24.4936 9.86425 24.4814 9.79895C24.4786 9.78335 24.4752 9.76734 24.4715 9.7514C24.4638 9.71856 24.4548 9.68693 24.4445 9.65593C24.4394 9.64053 24.4335 9.62407 24.4272 9.60773C24.4145 9.57491 24.4006 9.54361 24.3854 9.51313C24.3783 9.4988 24.3704 9.4838 24.3621 9.46895C24.3484 9.44472 24.3344 9.42169 24.3195 9.39925C24.3091 9.38336 24.2975 9.36683 24.2853 9.35055L24.2759 9.33798C24.2465 9.29958 24.2146 9.2632 24.1805 9.22906L24.1792 9.22805L15.3792 0.464409C14.9523 0.0392653 14.2615 0.0406954 13.8364 0.467603C13.4499 0.855701 13.4159 1.46183 13.7337 1.88824L13.8396 2.01038L20.7647 8.90867L1.59091 8.90954C0.988417 8.90954 0.5 9.39796 0.5 10.0004Z" fill="#FCFCFD"/>
</g>
</svg>
