<svg width="32" height="32" viewBox="0 0 32 32" fill="none" xmlns="http://www.w3.org/2000/svg">
<g id="Notification">
<g id="Iconly/Light-Outline/Notification">
<g id="Notification_2">
<path id="Combined-Shape" fill-rule="evenodd" clip-rule="evenodd" d="M13.7656 26.808C14.4563 27.5774 15.343 28 16.263 28H16.2643C17.1883 28 18.079 27.5774 18.771 26.8067C19.1416 26.3974 19.7736 26.364 20.183 26.7334C20.5936 27.1027 20.627 27.736 20.2576 28.1454C19.1803 29.3414 17.763 30 16.2643 30H16.2616C14.767 29.9987 13.3523 29.34 12.279 28.144C11.9096 27.7347 11.943 27.1014 12.3536 26.7334C12.7643 26.3627 13.3963 26.396 13.7656 26.808ZM16.3294 1.33337C22.256 1.33337 26.2374 5.94937 26.2374 10.26C26.2374 12.4774 26.8014 13.4174 27.4 14.4147C27.992 15.3987 28.6627 16.516 28.6627 18.628C28.1974 24.024 22.564 24.464 16.3294 24.464C10.0947 24.464 4.46004 24.024 4.00002 18.7134C3.99604 16.516 4.6667 15.3987 5.2587 14.4147L5.46769 14.0629C5.98227 13.1785 6.42137 12.2165 6.42137 10.26C6.42137 5.94937 10.4027 1.33337 16.3294 1.33337ZM16.3294 3.33337C11.6694 3.33337 8.42137 6.98404 8.42137 10.26C8.42137 13.032 7.65204 14.3134 6.97204 15.444C6.4267 16.352 5.99604 17.0694 5.99604 18.628C6.2187 21.1427 7.8787 22.464 16.3294 22.464C24.7334 22.464 26.4454 21.084 26.6667 18.5414C26.6627 17.0694 26.232 16.352 25.6867 15.444C25.0067 14.3134 24.2374 13.032 24.2374 10.26C24.2374 6.98404 20.9894 3.33337 16.3294 3.33337Z" fill="#FCFCFD"/>
</g>
</g>
</g>
</svg>
